<?xml version="1.0" encoding="utf-8"?>
<!-- Generator: Adobe Illustrator 19.1.0, SVG Export Plug-In . SVG Version: 6.00 Build 0)  -->
<svg version="1.1" id="Layer_1" xmlns="http://www.w3.org/2000/svg" xmlns:xlink="http://www.w3.org/1999/xlink" x="0px" y="0px"
	 viewBox="0 0 387.8 136.5" style="enable-background:new 0 0 387.8 136.5;" xml:space="preserve">
<style type="text/css">
	.st0{clip-path:url(#SVGID_2_);fill:url(#SVGID_3_);}
	.st1{clip-path:url(#SVGID_5_);fill:url(#SVGID_6_);}
	.st2{fill-rule:evenodd;clip-rule:evenodd;fill:#FFE84A;}
	.st3{fill-rule:evenodd;clip-rule:evenodd;fill:#1A4D89;}
	.st4{fill-rule:evenodd;clip-rule:evenodd;}
	.st5{fill:#1A4D89;}
</style>
<g>
	<g>
		<defs>
			<path id="SVGID_1_" d="M319.1,73.1c-2.5,15-35.8,28.8-75.4,30.5c-39.7,1.7-80.8-4-80.8-4c69.2,14.1,148.2,8.9,176.6-3.6
				c28.4-12.6,29.1-29.8,0.8-41.7C308.9,41.1,278.4,39,278.4,39C298.6,41.8,322.1,55.3,319.1,73.1"/>
		</defs>
		<clipPath id="SVGID_2_">
			<use xlink:href="#SVGID_1_"  style="overflow:visible;"/>
		</clipPath>
		
			<linearGradient id="SVGID_3_" gradientUnits="userSpaceOnUse" x1="-202.1242" y1="383.9857" x2="-201.1242" y2="383.9857" gradientTransform="matrix(198.1927 0 0 -198.1927 40222.375 76179.5547)">
			<stop  offset="0" style="stop-color:#FFFFFF"/>
			<stop  offset="1" style="stop-color:#1A4D89"/>
		</linearGradient>
		<rect x="162.8" y="39" class="st0" width="205.6" height="74.7"/>
	</g>
	<g>
		<defs>
			<path id="SVGID_4_" d="M235.2,26.7c-31.1,3-57.3,15.9-57.3,15.9c71.7-22.9,152.6-1.7,174.1,11.3c0,0-9.8-10.7-28.3-18.3
				c-14.8-6.1-35.9-10.2-62-10.2C253.4,25.4,244.5,25.8,235.2,26.7"/>
		</defs>
		<clipPath id="SVGID_5_">
			<use xlink:href="#SVGID_4_"  style="overflow:visible;"/>
		</clipPath>
		
			<linearGradient id="SVGID_6_" gradientUnits="userSpaceOnUse" x1="-202.1242" y1="384.0161" x2="-201.1242" y2="384.0161" gradientTransform="matrix(174.103 0 0 -174.103 35368.3594 66895.1953)">
			<stop  offset="0" style="stop-color:#FFFFFF"/>
			<stop  offset="1" style="stop-color:#1A4D89"/>
		</linearGradient>
		<rect x="177.9" y="19.7" class="st1" width="174.1" height="34.2"/>
	</g>
	<g>
		<path class="st2" d="M194.8,76.8c-2.8,2.4-5.9,3-8.3,3c-9.1,0-10.6-6.7-9.2-13.2c1.7-8.3,7.6-13.9,15-13.9c5.8,0,9,3.5,7.9,8.7
			h-5.8c0.1-0.9,0.5-4.6-3.3-4.6c-4.2,0-6.9,4.4-8.1,9.8c-0.3,1.6-1.9,9,3.6,9c2.4,0,4.9-1.5,5.8-5h5.9
			C198.1,72.2,197.4,74.7,194.8,76.8"/>
		<path class="st2" d="M207.3,76.3c1.3,0,2.8-0.5,3.8-2.5h4.9c-0.3,0.9-0.8,2.4-2.6,4c-1.7,1.4-4.2,2.1-6.9,2.1
			c-1.6,0-4.5-0.3-6-2.3c-1.3-1.8-1.5-4.2-0.8-7.2c0.7-3,2.1-6.6,5.7-8.7c1.6-0.9,3.5-1.5,5.5-1.5c2.6,0,5.5,1,6.5,4.4
			c0.7,2.5,0.1,5.2-0.3,6.7h-12.4C204.3,72.6,203.5,76.3,207.3,76.3"/>
		<path class="st2" d="M236.9,69.2l-2.1,9.9h-5.5l2.4-11.4c0.1-0.8,0.3-1.4,0.1-2c-0.2-0.8-0.9-1.6-2.3-1.6c-1.2,0-2.4,0.5-3.1,1.4
			c-0.4,0.5-0.9,1.4-1.2,2.8l-2.3,10.8h-5.4l3.2-15.1c0-0.1,0.4-2.1,0.6-3.4h5.2l-0.4,2.8c0.7-0.8,2.6-3.2,6.6-3.2
			c3.6,0,4.7,2.2,4.9,3.5C237.7,64.9,237.6,65.8,236.9,69.2"/>
		<path class="st2" d="M249.1,78.9c-1.8,0.5-3.4,0.6-4.3,0.6c-5.4,0-4.7-3.4-4.4-5l2.1-10.1H239l0.8-3.6h3.5l0.8-3.6l5.8-2l-1.2,5.6
			h4.4l-0.8,3.6h-4.4l-1.8,8.3c-0.3,1.7-0.5,2.7,1.9,2.7c0.8,0,1.2,0,1.9-0.1L249.1,78.9z"/>
		<path class="st2" d="M259,70.1l-1.9,9.1h-5.4l3-13.9c0.2-0.9,0.6-3.5,0.7-4.6h5.1l-0.7,3.5c1-1.6,2.7-3.8,7-3.6l-1,4.8
			C260.4,65,259.5,67.8,259,70.1"/>
		<path class="st2" d="M282.4,67.1l-1.5,7.4c-0.3,1.6-0.5,3.1-0.5,4.7h-4.9c0.1-1.1,0.2-2,0.4-2.5c-2.7,2.9-5.1,2.9-6.2,2.9
			c-2.7,0-3.7-0.8-4.3-1.5c-0.9-1.1-1.1-2.6-0.7-4c0.3-1.5,1.4-4.2,5.1-5.7c2.5-1,5.7-1,7.5-1c0.3-1.2,0.3-1.8,0.3-2.4
			c-0.2-1.3-1.6-1.5-2.1-1.5c-0.8,0-1.6,0.3-2.3,1c-0.5,0.6-0.7,1.2-0.7,1.6h-5.3c0.2-1,0.8-3,3-4.3c1.9-1.2,4.2-1.5,5.9-1.5
			c1.5,0,4.7,0.3,6.1,2.4C283,64.1,282.6,66.3,282.4,67.1"/>
		<polygon class="st2" points="288.6,79.2 283.2,79.2 288.8,52.8 294.2,52.8 		"/>
		<polygon class="st3" points="41.5,79.2 28,79.2 26.2,52.9 36.8,52.9 36.2,73.4 36.2,73.4 44.4,52.9 54.4,52.9 		"/>
		<path class="st3" d="M69.3,66.8l-2.6,12.3h-7.7l0.1-1.7c-1.6,1.7-3.7,2.3-5.7,2.3c-3.7,0-5.9-2-5.2-5.6c1-4.5,5-6.4,11.9-6.4h1.1
			l0.4-1.9c0.2-0.9-0.2-1.5-1.4-1.5c-1.1,0-1.7,0.4-2.2,1.9h-7.3c1.4-4.9,6.1-6,10.7-6C68.4,60.3,70.2,62.6,69.3,66.8"/>
		<path class="st3" d="M92.5,68.4h-8.2c0.4-2.3,0.4-3.5-1.1-3.5c-1.5,0-2.4,0.8-3.4,5.4c-0.9,4.3-0.3,4.9,1,4.9c1.4,0,2-1.1,2.7-3.4
			h8.2c-1.2,5.1-5,7.9-12.2,7.9c-5.7,0-10-2.4-8.5-9.8c1.3-6.3,6.3-9.6,12.8-9.6C91,60.3,93.3,63.4,92.5,68.4"/>
		<path class="st3" d="M104.8,79.2l0.4-2.8h-0.1c-2,2.6-4.4,3.3-6.5,3.3c-3.7,0-6-1.8-4.9-6.7l2.6-12.2h8.8l-2.4,11.3
			c-0.3,1.4,0.1,2.1,1.1,2.1c1,0,1.9-0.6,2.2-2l2.4-11.4h8.8l-3.9,18.3H104.8z"/>
		<path class="st3" d="M128.4,79.2l0.4-2.8h-0.1c-2,2.6-4.4,3.3-6.4,3.3c-3.7,0-6-1.8-4.9-6.7l2.6-12.2h8.8l-2.4,11.3
			c-0.3,1.4,0.1,2.1,1.1,2.1c1,0,1.9-0.6,2.2-2l2.4-11.4h8.8L137,79.2H128.4z"/>
		<path class="st3" d="M175.2,67l-2.6,12.2h-8.8l2.4-11.5c0.3-1.3-0.3-2-1.1-2c-0.8,0-1.7,0.6-2,2l-2.4,11.4h-8.8l2.4-11.5
			c0.3-1.3-0.3-2-1.1-2c-0.8,0-1.7,0.6-2,2l-2.4,11.4h-8.8l3.9-18.3h8.6l-0.4,2.8h0.1c2-2.6,4.4-3.3,6.5-3.3c2.8,0,4.6,1.1,5.3,3.3
			c2-2.6,4.4-3.3,6.4-3.3C173.9,60.3,176.2,62.2,175.2,67"/>
		<path class="st4" d="M209.8,63.8c-2.4,0-3.8,2-4.3,4.1h6.7C212.3,67.1,212.9,63.8,209.8,63.8"/>
		<path class="st4" d="M55.9,73.3c-0.3,1.2,0.3,1.9,1.6,1.9c1.5,0,2.2-1,2.6-2.5l0.3-1.5h-1.2C56.9,71.2,56.1,72.3,55.9,73.3"/>
		<path class="st4" d="M270,73.5c-0.3,1.2,0.3,2.6,2.1,2.6c1,0,1.9-0.5,2.5-1.1c1.2-1.2,1.6-2.6,2-4.6
			C273.2,70.2,270.5,71.3,270,73.5"/>
		<path class="st4" d="M379.8,68.2c0-4.8-0.8-9.6-2.7-13.9c-6-13.5-19.5-22-33.6-27.8c-14.8-6-31.4-9.9-48.9-12.6
			c-17.9-2.8-36.8-4.6-56.2-5.4c-19.9-0.8-40-0.6-60.9-0.6c-40.4,0-79.1,3.1-111.4,11.6c-16,4.2-30.9,9.8-42.4,19
			c-5.5,4.4-10.6,10-13.4,17.3C8.7,59.7,8,64,8,68.2h0c0,4.8,0.8,9.6,2.7,13.9c6,13.5,19.5,22,33.6,27.8c14.8,6,31.4,9.9,48.9,12.6
			c17.9,2.8,36.8,4.6,56.2,5.4c19.9,0.8,40,0.6,60.9,0.6c40.4,0,79.1-3.1,111.4-11.6c16-4.2,30.9-9.8,42.4-19
			c5.5-4.4,10.6-10,13.4-17.3C379.1,76.8,379.8,72.5,379.8,68.2L379.8,68.2z M162.8,99.6c0,0,41.2,5.7,80.8,4
			c39.7-1.7,72.9-15.6,75.4-30.5c3-17.8-20.5-31.3-40.7-34.1c0,0,30.5,2.1,61.8,15.3c28.2,11.9,27.5,29.1-0.8,41.6
			C311,108.6,232.1,113.8,162.8,99.6 M352,53.9c-21.5-13.1-102.4-34.2-174.1-11.3c0,0,26.2-12.9,57.3-15.9c38.6-3.8,69,0.9,88.5,8.9
			C342.2,43.2,352,53.9,352,53.9 M41.5,79.2H28l-1.8-26.3h10.6l-0.6,20.5h0.1l8.2-20.5h10L41.5,79.2z M69.3,66.8l-2.6,12.3h-7.7
			l0.1-1.7c-1.6,1.7-3.7,2.3-5.7,2.3c-3.7,0-5.9-2-5.2-5.6c1-4.5,5-6.4,11.9-6.4h1.1l0.4-1.9c0.2-0.9-0.2-1.5-1.4-1.5
			c-1.1,0-1.7,0.4-2.2,1.9h-7.3c1.4-4.9,6.1-6,10.7-6C68.4,60.3,70.2,62.6,69.3,66.8 M92.5,68.4h-8.2c0.4-2.3,0.4-3.5-1.1-3.5
			c-1.5,0-2.4,0.8-3.4,5.4c-0.9,4.3-0.3,4.9,1,4.9c1.4,0,2-1.1,2.7-3.4h8.2c-1.2,5.1-5,7.9-12.2,7.9c-5.7,0-10-2.4-8.5-9.8
			c1.3-6.3,6.3-9.6,12.8-9.6C91,60.3,93.3,63.4,92.5,68.4 M104.8,79.2l0.4-2.8h-0.1c-2,2.6-4.4,3.3-6.5,3.3c-3.7,0-6-1.8-4.9-6.7
			l2.6-12.2h8.8l-2.4,11.3c-0.3,1.4,0.1,2.1,1.1,2.1c1,0,1.9-0.6,2.2-2l2.4-11.4h8.8l-3.9,18.3H104.8z M128.4,79.2l0.4-2.8h-0.1
			c-2,2.6-4.4,3.3-6.4,3.3c-3.7,0-6-1.8-4.9-6.7l2.6-12.2h8.8l-2.4,11.3c-0.3,1.4,0.1,2.1,1.1,2.1c1,0,1.9-0.6,2.2-2l2.4-11.4h8.8
			L137,79.2H128.4z M175.2,67l-2.6,12.2h-8.8l2.4-11.5c0.3-1.3-0.3-2-1.1-2c-0.8,0-1.7,0.6-2,2l-2.4,11.4h-8.8l2.4-11.5
			c0.3-1.3-0.3-2-1.1-2c-0.8,0-1.7,0.6-2,2l-2.4,11.4h-8.8l3.9-18.3h8.6l-0.4,2.8h0.1c2-2.6,4.4-3.3,6.5-3.3c2.8,0,4.6,1.1,5.3,3.3
			c2-2.6,4.4-3.3,6.4-3.3C173.9,60.3,176.2,62.2,175.2,67 M194.8,76.8c-2.8,2.4-5.9,3-8.3,3c-9.1,0-10.6-6.7-9.2-13.2
			c1.7-8.3,7.6-13.9,15-13.9c5.8,0,9,3.5,7.9,8.7h-5.8c0.1-0.9,0.5-4.6-3.3-4.6c-4.2,0-6.9,4.4-8.1,9.8c-0.3,1.6-1.9,9,3.6,9
			c2.4,0,4.9-1.5,5.8-5h5.9C198.1,72.2,197.4,74.7,194.8,76.8 M207.3,76.3c1.3,0,2.8-0.5,3.8-2.5h4.9c-0.3,0.9-0.8,2.4-2.6,4
			c-1.7,1.4-4.2,2.1-6.9,2.1c-1.6,0-4.5-0.3-6-2.3c-1.3-1.8-1.5-4.2-0.8-7.2c0.7-3,2.1-6.6,5.7-8.7c1.6-0.9,3.5-1.5,5.5-1.5
			c2.6,0,5.5,1,6.5,4.4c0.7,2.5,0.1,5.2-0.3,6.7h-12.4C204.3,72.6,203.5,76.3,207.3,76.3 M236.9,69.2l-2.1,9.9h-5.5l2.4-11.4
			c0.1-0.8,0.3-1.4,0.1-2c-0.2-0.8-0.9-1.6-2.3-1.6c-1.2,0-2.4,0.5-3.1,1.4c-0.4,0.5-0.9,1.4-1.2,2.8l-2.3,10.8h-5.4l3.2-15.1
			c0-0.1,0.4-2.1,0.6-3.4h5.2l-0.4,2.8c0.7-0.8,2.6-3.2,6.6-3.2c3.6,0,4.7,2.2,4.9,3.5C237.7,64.9,237.6,65.8,236.9,69.2
			 M249.1,78.9c-1.8,0.5-3.4,0.6-4.3,0.6c-5.4,0-4.7-3.4-4.4-5l2.2-10.1H239l0.8-3.6h3.5l0.8-3.6l5.8-2l-1.2,5.6h4.4l-0.8,3.6h-4.4
			l-1.8,8.3c-0.3,1.7-0.5,2.7,1.9,2.7c0.8,0,1.2,0,1.9-0.1L249.1,78.9z M259,70.1l-1.9,9.1h-5.4l3-13.9c0.2-0.9,0.6-3.5,0.7-4.6h5.1
			l-0.7,3.5c1-1.6,2.7-3.8,7-3.6l-1,4.9C260.4,65,259.5,67.8,259,70.1 M282.4,67.1l-1.5,7.4c-0.3,1.6-0.5,3.1-0.5,4.7h-4.9
			c0.1-1.1,0.2-2,0.4-2.5c-2.7,2.9-5.1,2.9-6.2,2.9c-2.7,0-3.7-0.8-4.3-1.5c-0.9-1.1-1.1-2.6-0.7-4c0.3-1.5,1.4-4.2,5.1-5.7
			c2.5-1,5.7-1,7.5-1c0.3-1.2,0.3-1.8,0.3-2.4c-0.2-1.3-1.6-1.5-2.1-1.5c-0.8,0-1.6,0.3-2.3,1c-0.5,0.6-0.7,1.2-0.7,1.6h-5.3
			c0.2-1,0.8-3,3-4.3c1.9-1.2,4.2-1.5,5.9-1.5c1.5,0,4.7,0.3,6.1,2.4C283,64.1,282.6,66.3,282.4,67.1 M288.6,79.2h-5.4l5.6-26.3h5.4
			L288.6,79.2z"/>
		<path class="st5" d="M195,6.4c16.2,0,29.8,0.1,43.3,0.7c19.5,0.8,38.5,2.6,56.4,5.4c19.7,3.1,35.8,7.2,49.3,12.7
			c17.9,7.3,29.1,16.6,34.5,28.6c1.8,4.1,2.8,8.9,2.9,13.9l0,0v0.7c0,4.5-0.8,9-2.3,12.9c-2.5,6.6-7.2,12.7-13.9,18
			c-10.2,8.1-23.9,14.3-43,19.3c-29.5,7.7-67.1,11.7-111.8,11.7c-3,0-6,0-8.9,0c-2.9,0-5.8,0-8.7,0c-16.2,0-29.8-0.1-43.3-0.7
			c-19.5-0.8-38.5-2.6-56.4-5.4c-19.7-3.1-35.8-7.2-49.3-12.7c-17.9-7.3-29.1-16.6-34.5-28.6c-1.8-4.1-2.8-8.9-2.9-13.9l0,0v-0.7
			c0-4.5,0.8-9,2.3-12.9c2.5-6.6,7.2-12.7,13.9-18c10.2-8.1,23.9-14.3,43-19.3C95,10.3,132.6,6.4,177.3,6.4c3,0,6,0,8.9,0
			C189.2,6.4,192.1,6.4,195,6.4 M195,0c-2.9,0-5.8,0-8.8,0c-3,0-5.9,0-8.9,0C132.1,0,93.9,4,63.9,11.9c-20,5.3-34.5,11.8-45.4,20.5
			c-7.6,6.1-13,13-15.9,20.7C0.9,57.7,0,63,0,68.3l0,0.7l0,2.6l0.1,0.1c0.3,4.9,1.5,9.6,3.3,13.8c6.1,13.5,18.5,24,37.9,31.9
			c13.9,5.7,30.5,10,50.7,13.1c18.1,2.8,37.3,4.7,57.1,5.4c13.6,0.5,27.3,0.7,43.6,0.7c2.9,0,5.8,0,8.8,0c3,0,5.9,0,8.9,0
			c45.3,0,83.4-4,113.4-11.9c20-5.3,34.5-11.8,45.4-20.5c7.6-6.1,13-13,15.9-20.7c1.8-4.6,2.7-9.9,2.7-15.2v-0.7V65l-0.1-0.1
			c-0.3-4.9-1.5-9.6-3.3-13.8c-6.1-13.5-18.5-24-37.9-31.9c-13.9-5.7-30.5-10-50.7-13.1c-18.1-2.8-37.3-4.6-57.1-5.4
			C225,0.1,211.3,0,195,0"/>
	</g>
</g>
</svg>
