<?xml version="1.0" encoding="utf-8"?>
<!-- Generated by IcoMoon.io -->
<!DOCTYPE svg PUBLIC "-//W3C//DTD SVG 1.1//EN" "http://www.w3.org/Graphics/SVG/1.1/DTD/svg11.dtd">
<svg version="1.1" xmlns="http://www.w3.org/2000/svg" xmlns:xlink="http://www.w3.org/1999/xlink" width="32" height="32" viewBox="0 0 32 32">
<path fill="#fff" d="M30.2 0h-28.4c-1 0-1.8 0.8-1.8 1.8v28.4c0 1 0.8 1.8 1.8 1.8h15.4v-12.4h-4.2v-4.8h4.2v-3.6c0-4.2 2.6-6.4 6.2-6.4 1.8 0 3.2 0.2 3.8 0.2v4.4h-2.6c-2 0-2.4 1-2.4 2.4v3h4.8l-0.6 4.8h-4.2v12.4h8.2c1 0 1.8-0.8 1.8-1.8v-28.4c-0.2-1-1-1.8-2-1.8z"></path>
</svg>
