<svg xmlns="http://www.w3.org/2000/svg" viewBox="0 0 32 32"><defs><style>.a{fill:#fff;}</style></defs><title>googlereview</title><path class="a" d="M16.07,1.7a14.46,14.46,0,1,1,.31,28.92,14.19,14.19,0,0,1-7.6-2.08,2.25,2.25,0,0,0-1.52-.32l-4.2.52c-1.2.15-1.7-.43-1.34-1.6S2.53,24.54,3,23.25a2.09,2.09,0,0,0-.06-1.54A14.46,14.46,0,0,1,13.39,2,10.51,10.51,0,0,1,16.07,1.7ZM8.65,10.37c-1-.06-1.36.51-1,1.53,0.52,1.48,1.09,2.95,1.66,4.41a2.09,2.09,0,0,1,0,1.54c-0.42,1.21-.79,2.43-1.17,3.65s-0.09,1.78,1.26,1.66c1.56-.14,3.12-0.33,4.68-0.54a1.73,1.73,0,0,1,1.21.26q2,1.2,4,2.36c1.14,0.66,1.73.36,1.88-1s0.26-2.49.35-3.73a2.19,2.19,0,0,1,.66-1.48c1.06-1,2.08-2.14,3.12-3.21s0.93-1.68-.55-2.21c-1.18-.42-2.35-0.87-3.54-1.26a1.46,1.46,0,0,1-1-1c-0.43-1.23-.91-2.44-1.39-3.66s-1.12-1.46-2.15-.43S14.88,9.16,14,10.11a1.47,1.47,0,0,1-1.27.51C11.36,10.52,10,10.45,8.65,10.37Z"/></svg>