<?xml version="1.0" encoding="utf-8"?>
<!-- Generated by IcoMoon.io -->
<!DOCTYPE svg PUBLIC "-//W3C//DTD SVG 1.1//EN" "http://www.w3.org/Graphics/SVG/1.1/DTD/svg11.dtd">
<svg version="1.1" xmlns="http://www.w3.org/2000/svg" xmlns:xlink="http://www.w3.org/1999/xlink" width="32" height="32" viewBox="0 0 32 32">
<path fill="#fff" d="M10.2 14.6v3.4h5.8c-0.2 1.6-1.8 4.4-5.8 4.4-3.4 0-6.4-2.8-6.4-6.4s2.8-6.4 6.4-6.4c2 0 3.4 0.8 4 1.6l2.8-2.6c-1.8-1.6-4-2.6-6.8-2.6-5.6 0-10.2 4.6-10.2 10.2s4.6 10.2 10.2 10.2c5.8 0 9.8-4.2 9.8-10 0-0.6 0-1.2-0.2-1.6 0-0.2-9.6-0.2-9.6-0.2zM32 14.6h-3v-3h-3v3h-3v3h3v3h3v-3h3z"></path>
</svg>
