<?xml version="1.0" encoding="utf-8"?>
<!-- Generated by IcoMoon.io -->
<!DOCTYPE svg PUBLIC "-//W3C//DTD SVG 1.1//EN" "http://www.w3.org/Graphics/SVG/1.1/DTD/svg11.dtd">
<svg version="1.1" xmlns="http://www.w3.org/2000/svg" xmlns:xlink="http://www.w3.org/1999/xlink" width="32" height="32" viewBox="0 0 32 32">
<path fill="#fff" d="M28.4 32h-24.6c-2 0-3.6-1.6-3.6-3.6v-24.6c0-2 1.6-3.6 3.6-3.6h24.6c2 0 3.6 1.6 3.6 3.6v24.6c0 2-1.6 3.6-3.6 3.6zM16 9.8c-3.4 0-6.2 2.8-6.2 6.2s2.8 6.2 6.2 6.2 6.2-2.8 6.2-6.2-2.8-6.2-6.2-6.2zM28.4 5c0-0.6-0.6-1.2-1.2-1.2h-3.6c-0.6 0-1.2 0.6-1.2 1.2v3.6c0 0.6 0.6 1.2 1.2 1.2h3.6c0.6 0 1.2-0.6 1.2-1.2v-3.6zM28.4 13.6h-2.8c0.2 0.8 0.4 1.6 0.4 2.4 0 5.4-4.4 9.8-9.8 9.8s-9.8-4.4-9.8-9.8c0-0.8 0.2-1.6 0.4-2.4h-2.8v13.6c0 0.6 0.6 1.2 1.2 1.2h22.2c0.6 0 1.2-0.6 1.2-1.2l-0.2-13.6z"></path>
</svg>
