<?xml version="1.0" encoding="utf-8"?>
<!-- Generated by IcoMoon.io -->
<!DOCTYPE svg PUBLIC "-//W3C//DTD SVG 1.1//EN" "http://www.w3.org/Graphics/SVG/1.1/DTD/svg11.dtd">
<svg version="1.1" xmlns="http://www.w3.org/2000/svg" xmlns:xlink="http://www.w3.org/1999/xlink" width="32" height="32" viewBox="0 0 32 32">
<path fill="#fff" d="M27.2 27.2h-4.8v-7.4c0-1.8 0-4-2.4-4s-2.8 2-2.8 4v7.6h-4.8v-15.4h4.6v2c0.6-1.2 2.2-2.4 4.4-2.4 4.8 0 5.6 3.2 5.6 7.2v8.4h0.2zM7.2 10c-1.6 0-2.8-1.2-2.8-2.8s1.2-2.8 2.8-2.8c1.6 0 2.8 1.2 2.8 2.8-0.2 1.4-1.4 2.8-2.8 2.8zM9.4 27.2h-4.8v-15.2h4.8c0 0 0 15.2 0 15.2zM29.6 0h-27.2c-1.4 0-2.4 1-2.4 2.4v27.4c0 1.2 1 2.4 2.4 2.4h27.2c1.4 0 2.4-1 2.4-2.4v-27.4c0-1.4-1-2.4-2.4-2.4v0z"></path>
</svg>
