<?xml version="1.0" encoding="utf-8"?>
<!-- Generator: Adobe Illustrator 19.1.0, SVG Export Plug-In . SVG Version: 6.00 Build 0)  -->
<svg version="1.1" id="Layer_1" xmlns="http://www.w3.org/2000/svg" xmlns:xlink="http://www.w3.org/1999/xlink" x="0px" y="0px"
	 viewBox="-147 201 505 200" enable-background="new -147 201 505 200" xml:space="preserve">
<g>
	<g>
		<defs>
			<path id="SVGID_1_" d="M266.9,307.3c-3.2,19.3-46.2,37.1-97.2,39.3c-51.2,2.2-104.2-5.2-104.2-5.2
				c89.2,18.2,191.1,11.5,227.7-4.6c36.6-16.2,37.5-38.4,1-53.8c-40.5-17-79.7-19.7-79.7-19.7C240.4,266.9,270.7,284.3,266.9,307.3"
				/>
		</defs>
		<clipPath id="SVGID_2_">
			<use xlink:href="#SVGID_1_"  overflow="visible"/>
		</clipPath>
		
			<linearGradient id="SVGID_3_" gradientUnits="userSpaceOnUse" x1="-147" y1="401" x2="-146" y2="401" gradientTransform="matrix(255.5312 0 0 255.5312 37628.4844 -102156.5469)">
			<stop  offset="0" style="stop-color:#FFFFFF"/>
			<stop  offset="1" style="stop-color:#0057B8"/>
		</linearGradient>
		<rect x="65.4" y="263.3" clip-path="url(#SVGID_2_)" fill="url(#SVGID_3_)" width="265.1" height="96.3"/>
	</g>
	<g>
		<defs>
			<path id="SVGID_4_" d="M158.7,247.3c-40.1,3.9-73.9,20.5-73.9,20.5c92.4-29.5,196.8-2.2,224.5,14.6c0,0-12.6-13.8-36.5-23.6
				c-19.1-7.9-46.3-13.2-79.9-13.2C182.1,245.6,170.7,246.1,158.7,247.3"/>
		</defs>
		<clipPath id="SVGID_5_">
			<use xlink:href="#SVGID_4_"  overflow="visible"/>
		</clipPath>
		
			<linearGradient id="SVGID_6_" gradientUnits="userSpaceOnUse" x1="-147" y1="401" x2="-146" y2="401" gradientTransform="matrix(224.5 0 0 224.5 33086.3984 -89764.0469)">
			<stop  offset="0" style="stop-color:#FFFFFF"/>
			<stop  offset="1" style="stop-color:#1A4D89"/>
		</linearGradient>
		<rect x="84.9" y="238.4" clip-path="url(#SVGID_5_)" fill="url(#SVGID_6_)" width="224.5" height="44.1"/>
	</g>
	<path fill="#FFE84A" d="M106.7,312c-3.6,3.1-7.6,3.9-10.7,3.9c-11.7,0-13.7-8.6-11.9-17c2.2-10.7,9.8-17.9,19.3-17.9
		c7.5,0,11.6,4.5,10.2,11.2h-7.5c0.1-1.2,0.6-5.9-4.3-5.9c-5.4,0-8.9,5.7-10.4,12.6C91,301,89,310.5,96,310.5c3.1,0,6.3-1.9,7.5-6.4
		h7.6C110.8,306.1,109.9,309.2,106.7,312"/>
	<path fill="#FFE84A" d="M122.8,311.3c1.7,0,3.6-0.6,4.9-3.2h6.3c-0.4,1.2-1,3.1-3.4,5.2c-2.2,1.8-5.4,2.7-8.9,2.7
		c-2.1,0-5.8-0.4-7.7-3c-1.7-2.3-1.9-5.4-1-9.3c0.9-3.9,2.7-8.5,7.3-11.2c2.1-1.2,4.5-1.9,7.1-1.9c3.4,0,7.1,1.3,8.4,5.7
		c0.9,3.2,0.1,6.7-0.4,8.6h-16C118.9,306.5,117.9,311.3,122.8,311.3"/>
	<path fill="#FFE84A" d="M160.9,302.2l-2.7,12.8h-7.1l3.1-14.7c0.1-1,0.4-1.8,0.1-2.6c-0.3-1-1.2-2.1-3-2.1c-1.5,0-3.1,0.6-4,1.8
		c-0.5,0.6-1.2,1.8-1.5,3.6l-3,13.9h-7l4.1-19.5c0-0.1,0.5-2.7,0.8-4.4h6.7l-0.5,3.6c0.9-1,3.4-4.1,8.5-4.1c4.6,0,6.1,2.8,6.3,4.5
		C162,296.6,161.8,297.8,160.9,302.2"/>
	<path fill="#FFE84A" d="M176.5,314.7c-2.3,0.6-4.4,0.8-5.5,0.8c-7,0-6.1-4.4-5.7-6.4l2.7-13h-4.4l1-4.6h4.5l0.9-4.6l7.5-2.6
		l-1.5,7.2h5.7l-1,4.6H175l-2.3,10.7c-0.4,2.2-0.6,3.5,2.4,3.5c1,0,1.5,0,2.4-0.1L176.5,314.7z"/>
	<path fill="#FFE84A" d="M189.4,303.4l-2.4,11.7h-7l3.9-17.9c0.3-1.2,0.8-4.5,0.9-5.9h6.6l-0.9,4.5c1.3-2.1,3.5-4.9,9-4.6l-1.3,6.2
		C191.2,296.8,190,300.4,189.4,303.4"/>
	<path fill="#FFE84A" d="M219.6,299.5l-1.9,9.5c-0.4,2.1-0.6,4-0.6,6.1h-6.3c0.1-1.4,0.3-2.6,0.5-3.2c-3.5,3.7-6.6,3.7-8,3.7
		c-3.5,0-4.8-1-5.5-1.9c-1.2-1.4-1.4-3.4-0.9-5.2c0.4-1.9,1.8-5.4,6.6-7.3c3.2-1.3,7.3-1.3,9.7-1.3c0.4-1.5,0.4-2.3,0.4-3.1
		c-0.3-1.7-2.1-1.9-2.7-1.9c-1,0-2.1,0.4-3,1.3c-0.6,0.8-0.9,1.5-0.9,2.1h-6.8c0.3-1.3,1-3.9,3.9-5.5c2.4-1.5,5.4-1.9,7.6-1.9
		c1.9,0,6.1,0.4,7.9,3.1C220.4,295.6,219.7,298.4,219.6,299.5"/>
	<polygon fill="#FFE84A" points="227.6,315 220.6,315 227.9,281.1 234.8,281.1 	"/>
	<polygon fill="#0057B8" points="-91,315 -108.4,315 -110.7,281.1 -97.1,281.1 -97.8,307.6 -87.3,281.1 -74.4,281.1 	"/>
	<path fill="#0057B8" d="M-55.3,299.1l-3.4,15.9h-9.9l0.1-2.2c-2.1,2.2-4.8,3-7.3,3c-4.8,0-7.6-2.6-6.7-7.2
		c1.3-5.8,6.4-8.3,15.3-8.3h1.4l0.5-2.4c0.3-1.2-0.3-1.9-1.8-1.9c-1.4,0-2.2,0.5-2.8,2.4h-9.4c1.8-6.3,7.9-7.7,13.8-7.7
		C-56.3,290.7-54,293.6-55.3,299.1"/>
	<path fill="#0057B8" d="M-25.4,301.1H-36c0.5-3,0.5-4.5-1.4-4.5s-3.1,1-4.4,7c-1.2,5.5-0.4,6.3,1.3,6.3c1.8,0,2.6-1.4,3.5-4.4h10.6
		c-1.5,6.6-6.4,10.2-15.7,10.2c-7.3,0-12.9-3.1-11-12.6c1.7-8.1,8.1-12.4,16.5-12.4C-27.3,290.7-24.3,294.7-25.4,301.1"/>
	<path fill="#0057B8" d="M-9.4,315l0.5-3.6H-9c-2.6,3.4-5.7,4.3-8.4,4.3c-4.8,0-7.7-2.3-6.3-8.6l3.4-15.7H-9l-3.1,14.8
		c-0.4,1.8,0.1,2.7,1.4,2.7s2.4-0.8,2.8-2.6l3.1-14.7H6.5l-5,23.6h-11V315H-9.4z"/>
	<path fill="#0057B8" d="M21,315l0.5-3.6h-0.1c-2.6,3.4-5.7,4.3-8.3,4.3c-4.8,0-7.7-2.3-6.3-8.6l3.4-15.7h11.4l-3.2,14.8
		c-0.4,1.8,0.1,2.7,1.4,2.7s2.4-0.8,2.8-2.6l3.1-14.7H37l-4.9,23.5L21,315L21,315z"/>
	<path fill="#0057B8" d="M81.3,299.4l-3.4,15.7H66.6l3.1-14.8c0.4-1.7-0.4-2.6-1.4-2.6s-2.2,0.8-2.6,2.6L62.6,315H51.3l3.1-14.8
		c0.4-1.7-0.4-2.6-1.4-2.6s-2.2,0.8-2.6,2.6l-3.1,14.7H36l5-23.6h11.1l-0.5,3.6h0.1c2.6-3.4,5.7-4.3,8.4-4.3c3.6,0,5.9,1.4,6.8,4.3
		c2.6-3.4,5.7-4.3,8.3-4.3C79.7,290.7,82.7,293.1,81.3,299.4"/>
	<path d="M126,295.3c-3.1,0-4.9,2.6-5.5,5.3h8.6C129.2,299.5,130,295.3,126,295.3"/>
	<path d="M-72.4,307.5c-0.4,1.5,0.4,2.4,2.1,2.4c1.9,0,2.8-1.3,3.4-3.2l0.4-1.9H-68C-71.1,304.8-72.2,306.1-72.4,307.5"/>
	<path d="M203.6,307.6c-0.4,1.5,0.4,3.4,2.7,3.4c1.3,0,2.4-0.6,3.2-1.4c1.5-1.5,2.1-3.4,2.6-5.9
		C207.6,303.5,204.1,304.9,203.6,307.6"/>
	<path d="M345.2,300.9c0-6.2-1-12.4-3.5-17.9c-7.7-17.4-25.1-28.4-43.3-35.8c-19.1-7.7-40.5-12.8-63-16.2c-23.1-3.6-47.4-5.9-72.5-7
		c-25.7-1-51.6-0.8-78.5-0.8c-52.1,0-102,4-143.6,15c-20.6,5.4-39.8,12.6-54.7,24.5c-7.1,5.7-13.7,12.9-17.3,22.3
		c-1.9,4.9-2.8,10.4-2.8,16c0,6.2,1,12.4,3.5,17.9c7.7,17.4,25.1,28.4,43.3,35.8c19.1,7.7,40.5,12.8,63,16.2
		c23.1,3.6,47.4,5.9,72.5,7c25.7,1,51.6,0.8,78.5,0.8c52.1,0,102-4,143.6-15c20.6-5.4,39.8-12.6,54.7-24.5
		c7.1-5.7,13.7-12.9,17.3-22.3C344.3,311.9,345.2,306.4,345.2,300.9z M65.4,341.4c0,0,53.1,7.3,104.2,5.2
		c51.2-2.2,94-20.1,97.2-39.3c3.9-22.9-26.4-40.4-52.5-44c0,0,39.3,2.7,79.7,19.7c36.4,15.3,35.5,37.5-1,53.6
		C256.5,352.9,154.6,359.6,65.4,341.4 M309.3,282.5c-27.7-16.9-132-44.1-224.5-14.6c0,0,33.8-16.6,73.9-20.5
		c49.8-4.9,89,1.2,114.1,11.5C296.7,268.7,309.3,282.5,309.3,282.5 M-91,315h-17.4l-2.3-33.9H-97l-0.8,26.4h0.1l10.6-26.4h12.9
		L-91,315z M-55.3,299.1l-3.4,15.9h-9.9l0.1-2.2c-2.1,2.2-4.8,3-7.3,3c-4.8,0-7.6-2.6-6.7-7.2c1.3-5.8,6.4-8.3,15.3-8.3h1.4l0.5-2.4
		c0.3-1.2-0.3-1.9-1.8-1.9c-1.4,0-2.2,0.5-2.8,2.4h-9.4c1.8-6.3,7.9-7.7,13.8-7.7C-56.3,290.7-54,293.6-55.3,299.1 M-25.4,301.1H-36
		c0.5-3,0.5-4.5-1.4-4.5s-3.1,1-4.4,7c-1.2,5.5-0.4,6.3,1.3,6.3c1.8,0,2.6-1.4,3.5-4.4h10.6c-1.5,6.6-6.4,10.2-15.7,10.2
		c-7.3,0-12.9-3.1-11-12.6c1.7-8.1,8.1-12.4,16.5-12.4C-27.3,290.7-24.3,294.7-25.4,301.1 M-9.4,315l0.5-3.6H-9
		c-2.6,3.4-5.7,4.3-8.4,4.3c-4.8,0-7.7-2.3-6.3-8.6l3.4-15.7H-9l-3.1,14.8c-0.4,1.8,0.1,2.7,1.4,2.7s2.4-0.8,2.8-2.6l3.1-14.7H6.5
		l-5,23.6h-11V315H-9.4z M21,315l0.5-3.6h-0.1c-2.6,3.4-5.7,4.3-8.3,4.3c-4.8,0-7.7-2.3-6.3-8.6l3.4-15.7h11.4l-3.2,14.8
		c-0.4,1.8,0.1,2.7,1.4,2.7s2.4-0.8,2.8-2.6l3.1-14.7H37l-4.9,23.5L21,315L21,315z M81.3,299.4l-3.4,15.7H66.6l3.1-14.8
		c0.4-1.7-0.4-2.6-1.4-2.6s-2.2,0.8-2.6,2.6L62.6,315H51.3l3.1-14.8c0.4-1.7-0.4-2.6-1.4-2.6s-2.2,0.8-2.6,2.6l-3.1,14.7H36l5-23.6
		h11.1l-0.5,3.6h0.1c2.6-3.4,5.7-4.3,8.4-4.3c3.6,0,5.9,1.4,6.8,4.3c2.6-3.4,5.7-4.3,8.3-4.3C79.7,290.7,82.7,293.1,81.3,299.4
		 M106.7,312c-3.6,3.1-7.6,3.9-10.7,3.9c-11.7,0-13.7-8.6-11.9-17c2.2-10.7,9.8-17.9,19.3-17.9c7.5,0,11.6,4.5,10.2,11.2h-7.5
		c0.1-1.2,0.6-5.9-4.3-5.9c-5.4,0-8.9,5.7-10.4,12.6C91,301,89,310.5,96,310.5c3.1,0,6.3-1.9,7.5-6.4h7.6
		C110.8,306.1,109.9,309.2,106.7,312 M122.8,311.3c1.7,0,3.6-0.6,4.9-3.2h6.3c-0.4,1.2-1,3.1-3.4,5.2c-2.2,1.8-5.4,2.7-8.9,2.7
		c-2.1,0-5.8-0.4-7.7-3c-1.7-2.3-1.9-5.4-1-9.3c0.9-3.9,2.7-8.5,7.3-11.2c2.1-1.2,4.5-1.9,7.1-1.9c3.4,0,7.1,1.3,8.4,5.7
		c0.9,3.2,0.1,6.7-0.4,8.6h-16C118.9,306.5,117.9,311.3,122.8,311.3 M160.9,302.2l-2.7,12.8h-7.1l3.1-14.7c0.1-1,0.4-1.8,0.1-2.6
		c-0.3-1-1.2-2.1-3-2.1c-1.5,0-3.1,0.6-4,1.8c-0.5,0.6-1.2,1.8-1.5,3.6l-3,13.9h-7l4.1-19.5c0-0.1,0.5-2.7,0.8-4.4h6.7l-0.5,3.6
		c0.9-1,3.4-4.1,8.5-4.1c4.6,0,6.1,2.8,6.3,4.5C162,296.6,161.8,297.8,160.9,302.2 M176.5,314.7c-2.3,0.6-4.4,0.8-5.5,0.8
		c-7,0-6.1-4.4-5.7-6.4l2.8-13h-4.5l1-4.6h4.5l0.9-4.6l7.5-2.6l-1.5,7.2h5.7l-1,4.6H175l-2.3,10.7c-0.4,2.2-0.6,3.5,2.4,3.5
		c1,0,1.5,0,2.4-0.1L176.5,314.7z M189.4,303.4l-2.4,11.7h-7l3.9-17.9c0.3-1.2,0.8-4.5,0.9-5.9h6.6l-0.9,4.5c1.3-2.1,3.5-4.9,9-4.6
		l-1.3,6.3C191.2,296.8,190,300.4,189.4,303.4 M219.6,299.5l-1.9,9.5c-0.4,2.1-0.6,4-0.6,6.1h-6.3c0.1-1.4,0.3-2.6,0.5-3.2
		c-3.5,3.7-6.6,3.7-8,3.7c-3.5,0-4.8-1-5.5-1.9c-1.2-1.4-1.4-3.4-0.9-5.2c0.4-1.9,1.8-5.4,6.6-7.3c3.2-1.3,7.3-1.3,9.7-1.3
		c0.4-1.5,0.4-2.3,0.4-3.1c-0.3-1.7-2.1-1.9-2.7-1.9c-1,0-2.1,0.4-3,1.3c-0.6,0.8-0.9,1.5-0.9,2.1h-6.8c0.3-1.3,1-3.9,3.9-5.5
		c2.4-1.5,5.4-1.9,7.6-1.9c1.9,0,6.1,0.4,7.9,3.1C220.4,295.6,219.7,298.4,219.6,299.5 M227.6,315h-7l7.2-33.9h7L227.6,315z"/>
	<path fill="#0057B8" d="M106.9,221.1c20.9,0,38.4,0.1,55.8,0.9c25.1,1,49.6,3.4,72.7,7c25.4,4,46.2,9.3,63.6,16.4
		c23.1,9.4,37.5,21.4,44.5,36.9c2.3,5.3,3.6,11.5,3.7,17.9v0.8c0,5.8-1,11.6-3,16.6c-3.2,8.5-9.3,16.4-17.9,23.2
		c-13.2,10.4-30.8,18.4-55.4,24.9c-38,9.9-86.5,15.1-144.1,15.1c-3.9,0-7.7,0-11.5,0c-3.8,0-7.5,0-11.2,0c-20.9,0-38.4-0.1-55.8-0.9
		c-25.1-1-49.6-3.4-72.7-7c-25.4-4-46.2-9.3-63.6-16.4c-23.1-9.4-37.5-21.4-44.5-36.9c-2.3-5.3-3.6-11.5-3.7-17.9v-0.8
		c0-5.8,1-11.6,3-16.6c3.2-8.5,9.3-16.4,17.9-23.2c13.2-10.4,30.8-18.4,55.4-24.9c37.9-9.9,86.4-15.1,144-15.1c3.9,0,7.7,0,11.5,0
		C99.4,221.1,103.2,221.1,106.9,221.1 M106.9,213c-3.7,0-7.5,0-11.3,0c-3.8,0-7.6,0-11.5,0c-58.4,0-107.5,5.2-146.2,15.3
		c-25.8,6.8-44.5,15.2-58.5,26.4c-9.8,7.9-16.8,16.8-20.5,26.7c-2.2,5.9-3.4,12.6-3.4,19.5v0.9v3.4l0.1,0.1
		c0.4,6.3,1.9,12.4,4.3,17.8c7.9,17.4,23.9,30.9,48.9,41.1c17.9,7.3,39.3,12.9,65.4,16.9c23.3,3.6,48.1,6.1,73.6,7
		C65.3,388.7,83,389,104,389c3.7,0,7.5,0,11.3,0c3.8,0,7.6,0,11.5,0c58.4,0,107.5-5.2,146.2-15.3c25.8-6.8,44.5-15.2,58.5-26.4
		c9.8-7.9,16.8-16.8,20.5-26.7c2.3-5.9,3.5-12.8,3.5-19.6v-1v-3.4l-0.1-0.1c-0.4-6.3-1.9-12.4-4.3-17.8
		c-7.9-17.4-23.9-30.9-48.9-41.1c-17.9-7.3-39.3-12.9-65.4-16.9c-23.3-3.6-48.1-5.9-73.6-7C145.5,213.1,127.9,213,106.9,213"/>
</g>
</svg>
