<?xml version="1.0" encoding="utf-8"?>
<!-- Generated by IcoMoon.io -->
<!DOCTYPE svg PUBLIC "-//W3C//DTD SVG 1.1//EN" "http://www.w3.org/Graphics/SVG/1.1/DTD/svg11.dtd">
<svg version="1.1" xmlns="http://www.w3.org/2000/svg" xmlns:xlink="http://www.w3.org/1999/xlink" width="34" height="32" viewBox="0 0 34 32">
<path fill="#e65854" d="M17.093 4.174l12.919 12.919h4.174l-17.093-17.093-17.093 17.093h4.174z"></path>
<path fill="#ffac4d" d="M29.814 32h-25.64v-14.907l12.919-12.919 12.721 12.919z"></path>
<path fill="#e65854" d="M7.752 17.689h8.348v14.311h-8.348v-14.311z"></path>
<path fill="#e65854" d="M18.484 17.093h8.149v8.149h-8.149v-8.149z"></path>
<path fill="#fff" d="M19.279 18.484h6.758v6.162h-6.758v-6.162z"></path>
<path fill="#ffac4d" d="M15.106 25.242c0 0.439-0.356 0.795-0.795 0.795s-0.795-0.356-0.795-0.795c0-0.439 0.356-0.795 0.795-0.795s0.795 0.356 0.795 0.795z"></path>
<path fill="#e65854" d="M23.652 2.783h2.783v6.957h-2.783v-6.957z"></path>
</svg>
