<?xml version="1.0" encoding="utf-8"?>
<!-- Generated by IcoMoon.io -->
<!DOCTYPE svg PUBLIC "-//W3C//DTD SVG 1.1//EN" "http://www.w3.org/Graphics/SVG/1.1/DTD/svg11.dtd">
<svg version="1.1" xmlns="http://www.w3.org/2000/svg" xmlns:xlink="http://www.w3.org/1999/xlink" width="39" height="32" viewBox="0 0 39 32">
<path fill="#e65854" d="M36.741 13.511h-34.607c-0.237 0-0.711 0.237-0.474 0.711l3.556 17.067c0 0.474 0.474 0.711 0.948 0.711h27.022c0.474 0 0.948-0.237 0.948-0.711l3.319-17.067c0-0.474-0.237-0.711-0.711-0.711zM31.763 27.259l-0.237 0.948c0 0.474-0.474 0.711-0.948 0.711h-22.281c-0.474 0-0.711-0.237-0.948-0.711v-0.711c0-0.474 0.237-0.711 0.711-0.711h23.23c0.237-0.237 0.474 0 0.474 0.474zM32.711 21.807l-0.237 0.948c0 0.474-0.474 0.711-0.948 0.711h-24.178c-0.474 0-0.711-0.237-0.948-0.711v-0.711c0-0.474 0.237-0.711 0.711-0.711h25.126c0.237-0.237 0.711 0.237 0.474 0.474zM34.133 16.83l-0.237 0.948c0 0.474-0.474 0.711-0.948 0.711h-27.022c-0.474 0-0.711-0.237-0.948-0.711v-0.948c0-0.474 0.237-0.711 0.711-0.711h27.733c0.474 0 0.711 0.237 0.711 0.711z"></path>
<path fill="#ffac4d" d="M38.163 9.719h-37.215c-0.474 0-0.948 0.474-0.948 0.948v2.607c0 0.474 0.474 0.948 0.948 0.948h37.215c0.474 0 0.948-0.474 0.948-0.948v-2.607c0-0.474-0.474-0.948-0.948-0.948z"></path>
<path fill="#e65854" d="M18.015 0.474c0.711 0.237 0.948 0.711 0.711 1.185l-3.081 10.43c-0.237 0.711-0.711 0.948-1.422 0.711l-1.422-0.474c-0.474 0-0.711-0.711-0.474-1.185l3.319-10.43c0-0.474 0.474-0.711 0.948-0.711l1.422 0.474z"></path>
<path fill="#e65854" d="M22.281 0c0.474 0 1.185 0.237 1.185 0.711l3.319 10.43c0.237 0.474-0.237 0.948-0.711 1.185l-1.422 0.474c-0.474 0.237-0.948 0-1.185-0.711l-3.319-10.43c0-0.474 0.237-0.948 0.711-1.185l1.422-0.474z"></path>
</svg>
