<?xml version="1.0" encoding="utf-8"?>
<!-- Generated by IcoMoon.io -->
<!DOCTYPE svg PUBLIC "-//W3C//DTD SVG 1.1//EN" "http://www.w3.org/Graphics/SVG/1.1/DTD/svg11.dtd">
<svg version="1.1" xmlns="http://www.w3.org/2000/svg" xmlns:xlink="http://www.w3.org/1999/xlink" width="44" height="32" viewBox="0 0 44 32">
<path fill="#e65854" d="M22.061 10.667h2.909c0 0 0.727-0.242 0.97-1.212v-2.182h3.151c0 0 7.030 11.879 8.242 15.030v7.515c0 0-2.424-0.242-2.424 1.697l-0.242 0.485h-7.515l-0.242-0.242c0 0-0.485-1.455-0.97-1.939h-7.758c-0.485 0.485-0.97 1.939-0.97 1.939l-0.242 0.242h-7.515l-0.242-0.485c0-2.182-2.424-1.697-2.424-1.697v-7.515c1.212-3.151 8.242-15.030 8.242-15.030h2.909v2.182c0.242 0.97 0.97 1.212 0.97 1.212h3.151z"></path>
<path fill="#ad423f" d="M22.061 6.061h10.424c0 0 1.212 0.242 0 2.667 0 0-0.727 1.212-0.242 2.424 0 0 4.606 3.394 10.424 2.424 0 0 1.455-1.455 1.455-6.545 0 0 0.485-5.576-14.788-6.788h-14.545c-15.273 0.97-14.788 6.545-14.788 6.545 0 5.091 1.455 6.545 1.455 6.545 5.818 0.97 10.424-2.424 10.424-2.424 0.727-1.212-0.242-2.424-0.242-2.424-1.212-2.182 0-2.667 0-2.667h10.424z"></path>
<path fill="#fff" d="M29.576 19.636c0 4.151-3.365 7.515-7.515 7.515s-7.515-3.365-7.515-7.515c0-4.151 3.365-7.515 7.515-7.515s7.515 3.365 7.515 7.515z"></path>
<path fill="#e65854" d="M27.151 19.636c0 2.812-2.279 5.091-5.091 5.091s-5.091-2.279-5.091-5.091c0-2.812 2.279-5.091 5.091-5.091s5.091 2.279 5.091 5.091z"></path>
</svg>
