<?xml version="1.0" encoding="utf-8"?>
<!-- Generated by IcoMoon.io -->
<!DOCTYPE svg PUBLIC "-//W3C//DTD SVG 1.1//EN" "http://www.w3.org/Graphics/SVG/1.1/DTD/svg11.dtd">
<svg version="1.1" xmlns="http://www.w3.org/2000/svg" xmlns:xlink="http://www.w3.org/1999/xlink" width="35" height="32" viewBox="0 0 35 32">
<path d="M22.222 21.778c-0.889-1.111-0.222-2.889 0.222-4 1.333-1.111 2.222-2.667 2.667-4.444 0.222 0.222 0.222 0.222 0.444 0.222 0.667 0 1.111-1.111 1.111-2.444s-0.444-2.444-1.111-2.444c0 0 0 0 0 0-0.222-4.889-2.222-8.667-8-8.667-6 0-8 3.778-8.222 8.667 0 0 0 0 0 0-0.444 0-1.111 1.111-1.111 2.444s0.667 2.444 1.111 2.444c0.222 0 0.444-0.222 0.444-0.222 0.444 1.778 1.556 3.333 2.667 4.444 0.444 1.111 0.889 2.889 0.222 4 0 0-12.889 4.667-12.889 10h35.111c0.222-5.333-12.667-10-12.667-10z"></path>
</svg>
