<?xml version="1.0" encoding="utf-8"?>
<!-- Generated by IcoMoon.io -->
<!DOCTYPE svg PUBLIC "-//W3C//DTD SVG 1.1//EN" "http://www.w3.org/Graphics/SVG/1.1/DTD/svg11.dtd">
<svg version="1.1" xmlns="http://www.w3.org/2000/svg" xmlns:xlink="http://www.w3.org/1999/xlink" width="23" height="32" viewBox="0 0 23 32">
<path fill="#263449" d="M23.289 30.044l-6.578-11.556c4.089-3.022 5.156-8.711 2.667-13.333-2.844-4.978-9.244-6.578-14.222-3.733s-6.578 9.067-3.733 14.044c2.667 4.622 8.178 6.4 12.8 4.444l6.578 11.556c0.356 0.533 1.067 0.711 1.778 0.356s1.067-1.244 0.711-1.778z"></path>
<path fill="#ccc" d="M18.311 10.311c0 4.418-3.582 8-8 8s-8-3.582-8-8c0-4.418 3.582-8 8-8s8 3.582 8 8z"></path>
<path fill="#fff" d="M12.8 6.756c0 1.375-1.114 2.489-2.489 2.489s-2.489-1.114-2.489-2.489c0-1.375 1.114-2.489 2.489-2.489s2.489 1.114 2.489 2.489z"></path>
</svg>
