<?xml version="1.0" encoding="utf-8"?>
<!-- Generated by IcoMoon.io -->
<!DOCTYPE svg PUBLIC "-//W3C//DTD SVG 1.1//EN" "http://www.w3.org/Graphics/SVG/1.1/DTD/svg11.dtd">
<svg version="1.1" xmlns="http://www.w3.org/2000/svg" xmlns:xlink="http://www.w3.org/1999/xlink" width="34" height="32" viewBox="0 0 34 32">
<path fill="#e65854" d="M3.945 0h26.521c2.192 0 3.945 1.753 3.945 3.945v28.055l-6.575-6.795h-23.89c-2.192 0-3.945-1.753-3.945-3.945v-17.315c0-2.192 1.753-3.945 3.945-3.945z"></path>
<path fill="#fff" d="M27.397 7.014h-22.137c-0.438 0-0.877-0.438-0.877-0.658 0-0.438 0.219-0.658 0.658-0.658h22.137c0.438 0 0.658 0.219 0.658 0.658 0.219 0.219 0 0.658-0.438 0.658zM28.055 10.959c0-0.438-0.219-0.658-0.658-0.658h-22.137c-0.438 0-0.877 0.219-0.877 0.658s0.219 0.658 0.658 0.658h22.137c0.658 0 0.877-0.219 0.877-0.658zM28.055 15.781c0-0.438-0.219-0.658-0.658-0.658h-22.137c-0.438-0.219-0.877 0.219-0.877 0.658s0.219 0.658 0.658 0.658h22.137c0.658 0 0.877-0.438 0.877-0.658z"></path>
</svg>
