<?xml version="1.0" encoding="utf-8"?>
<!-- Generated by IcoMoon.io -->
<!DOCTYPE svg PUBLIC "-//W3C//DTD SVG 1.1//EN" "http://www.w3.org/Graphics/SVG/1.1/DTD/svg11.dtd">
<svg version="1.1" xmlns="http://www.w3.org/2000/svg" xmlns:xlink="http://www.w3.org/1999/xlink" width="43" height="32" viewBox="0 0 43 32">
<path fill="#9eddd4" d="M9.759 27.007l-9.759 4.993 1.362-22.241 8.397-3.631z"></path>
<path fill="#5ec6b8" d="M9.759 27.007l11.801 2.496v-20.652l-11.801-2.723z"></path>
<path fill="#5ec6b8" d="M33.589 27.007l9.759 4.993-1.362-22.241-8.397-3.631z"></path>
<path fill="#9eddd4" d="M33.589 27.007l-12.028 2.496v-20.652l12.028-2.723z"></path>
<path fill="#5ec6b8" d="M41.986 9.759l-8.397-3.404-12.028 2.496-11.801-2.723-8.397 3.631-1.362 22.241 9.759-4.993 11.801 2.496 12.028-2.496 9.759 4.993-1.362-22.241zM21.56 28.823l-12.028-2.496-8.851 4.312 1.135-20.652 7.716-3.177 12.028 2.723 12.028-2.723 7.716 3.177 1.135 20.652-8.851-4.312-12.028 2.496z"></path>
<path fill="#e65854" d="M21.56 0c-2.95 0-5.447 2.496-5.447 5.447 0 0.908 0.227 1.816 0.681 2.723l4.766 10.44 4.539-10.213c0.681-0.908 1.135-1.816 1.135-2.95 0-2.95-2.496-5.447-5.674-5.447zM21.56 8.397c-1.816 0-3.177-1.362-3.177-3.177s1.362-3.177 3.177-3.177c1.816 0 3.177 1.362 3.177 3.177 0.227 1.816-1.362 3.177-3.177 3.177z"></path>
</svg>
