<?xml version="1.0" encoding="utf-8"?>
<!-- Generated by IcoMoon.io -->
<!DOCTYPE svg PUBLIC "-//W3C//DTD SVG 1.1//EN" "http://www.w3.org/Graphics/SVG/1.1/DTD/svg11.dtd">
<svg version="1.1" xmlns="http://www.w3.org/2000/svg" xmlns:xlink="http://www.w3.org/1999/xlink" width="32" height="32" viewBox="0 0 32 32">
<path fill="#263449" d="M28.903 16.31c1.239-0.413 2.271-0.826 3.097-1.239 0-0.826-0.206-1.858-0.413-2.684 0 0 0-0.206 0-0.206-0.826-0.206-2.065-0.206-3.303-0.206-0.206-0.826-0.619-1.445-0.826-2.065 0.826-1.032 1.652-1.858 2.065-2.684-0.619-0.826-1.239-1.652-1.858-2.271-0.826 0.413-1.858 0.826-3.097 1.445-0.619-0.413-1.239-1.032-1.858-1.445 0.206-1.239 0.413-2.477 0.413-3.303-0.826-0.413-1.858-0.826-2.684-1.032-0.413 0.619-1.032 1.652-1.858 2.684-0.619 0-1.445-0.206-2.271-0.206-0.413-1.239-0.826-2.271-1.239-3.097-0.826 0-1.652 0.206-2.684 0.413 0 0-0.206 0-0.206 0-0.206 0.826-0.206 2.065-0.206 3.303-0.826 0.413-1.445 0.619-2.065 1.032-1.032-0.826-1.858-1.652-2.684-2.065-0.826 0.413-1.652 1.032-2.271 1.652 0.413 0.826 0.826 1.858 1.445 3.097-0.619 0.619-1.032 1.239-1.445 1.858-1.239-0.206-2.477-0.413-3.303-0.413-0.413 0.826-0.826 1.652-1.032 2.684 0.619 0.619 1.652 1.239 2.684 1.858 0 0.826-0.206 1.445-0.206 2.271-1.239 0.413-2.271 0.826-3.097 1.239 0 0.826 0.206 1.652 0.413 2.684 0 0 0 0.206 0 0.206 0.826 0.206 2.065 0.206 3.303 0.206 0.206 0.826 0.619 1.445 0.826 2.065-0.826 1.032-1.652 1.858-2.065 2.684 0.619 0.826 1.239 1.652 1.858 2.271 0.826-0.206 1.858-0.826 3.097-1.445 0.619 0.413 1.239 1.032 1.858 1.445-0.206 1.239-0.413 2.477-0.413 3.303 0.826 0.413 1.858 0.826 2.684 1.032 0.619-0.619 1.239-1.652 1.858-2.684 0.826 0.206 1.445 0.206 2.271 0.206 0.413 1.239 0.826 2.271 1.239 3.097 0.826 0 1.858-0.206 2.684-0.413 0 0 0.206 0 0.206 0 0.206-0.826 0.206-2.065 0.206-3.303 0.826-0.206 1.445-0.619 2.065-0.826 1.032 0.826 1.858 1.652 2.684 2.065 0.826-0.619 1.652-1.239 2.271-1.858-0.413-0.826-0.826-1.858-1.445-3.097 0.413-0.619 1.032-1.239 1.445-1.858 1.239 0.206 2.477 0.413 3.303 0.413 0.413-0.826 0.826-1.858 1.032-2.684-0.619-0.619-1.652-1.239-2.684-1.858 0.206-0.619 0.206-1.445 0.206-2.271zM24.568 21.471c-1.445 2.271-3.716 3.923-6.4 4.542-0.826 0.206-1.445 0.206-2.271 0.206-4.748 0-8.877-3.303-9.91-7.845-1.032-5.574 2.271-10.942 7.845-12.181 0.619-0.206 1.445-0.413 2.271-0.413 4.748 0 8.877 3.303 9.91 7.845 0.413 2.684 0 5.574-1.445 7.845z"></path>
<path fill="#5ec6b8" d="M16.103 7.639c-0.619 0-1.239 0-1.858 0.206-4.542 1.032-7.432 5.574-6.4 10.116 0.826 3.923 4.335 6.606 8.258 6.606 0.619 0 1.239 0 1.858-0.206 2.271-0.413 4.129-1.858 5.161-3.716 1.239-1.858 1.652-4.129 1.032-6.4-0.826-3.923-4.129-6.606-8.052-6.606zM17.342 21.471c-2.89 0.619-5.987-1.239-6.606-4.129s1.239-5.987 4.129-6.606c2.89-0.619 5.987 1.239 6.606 4.129s-1.239 5.781-4.129 6.606z"></path>
</svg>
