<?xml version="1.0" encoding="utf-8"?>
<!-- Generated by IcoMoon.io -->
<!DOCTYPE svg PUBLIC "-//W3C//DTD SVG 1.1//EN" "http://www.w3.org/Graphics/SVG/1.1/DTD/svg11.dtd">
<svg version="1.1" xmlns="http://www.w3.org/2000/svg" xmlns:xlink="http://www.w3.org/1999/xlink" width="33" height="32" viewBox="0 0 33 32">
<path fill="#263449" d="M31.117 18.317c-0.883 0-1.545-0.662-1.545-1.324 0-7.724-6.621-14.124-14.786-14.124-0.883 0-1.545-0.662-1.545-1.545 0-0.662 0.662-1.324 1.545-1.324 9.931 0 17.876 7.503 17.876 16.993 0 0.662-0.662 1.324-1.545 1.324z"></path>
<path fill="#263449" d="M24.276 18.317c-0.883 0-1.545-0.662-1.545-1.324 0-4.193-3.531-7.724-7.945-7.724-0.883 0-1.545-0.662-1.545-1.324 0-0.883 0.662-1.324 1.545-1.324 6.179 0 11.034 4.634 11.034 10.372 0 0.662-0.883 1.324-1.545 1.324z"></path>
<path fill="#e65854" d="M11.697 20.303l-5.297-5.517c0 0-0.441-0.883 1.324-1.324 0 0 1.103-0.221 1.324-1.103 0 0-0.662-4.193-4.193-6.621 0 0-1.545 0-4.193 2.648 0 0-3.31 2.648 4.193 11.255l7.724 7.724c8.607 7.283 11.255 4.193 11.255 4.193 2.648-2.869 2.648-4.414 2.648-4.414-2.428-3.531-6.621-4.193-6.621-4.193-0.883 0.221-1.103 1.324-1.103 1.324-0.441 1.766-1.324 1.324-1.324 1.324l-5.738-5.297z"></path>
</svg>
