<?xml version="1.0" encoding="utf-8"?>
<!-- Generated by IcoMoon.io -->
<!DOCTYPE svg PUBLIC "-//W3C//DTD SVG 1.1//EN" "http://www.w3.org/Graphics/SVG/1.1/DTD/svg11.dtd">
<svg version="1.1" xmlns="http://www.w3.org/2000/svg" xmlns:xlink="http://www.w3.org/1999/xlink" width="32" height="32" viewBox="0 0 32 32">
<path fill="#fff" d="M16 0c-8.8 0-16 7.2-16 16 0 6.8 4.2 12.6 10.2 15-0.2-1.2-0.2-3.2 0-4.6 0.2-1.2 1.8-8 1.8-8s-0.4-1-0.4-2.4c0-2.2 1.2-3.8 2.8-3.8 1.4 0 2 1 2 2.2 0 1.4-0.8 3.4-1.4 5.4-0.4 1.6 0.8 2.8 2.4 2.8 2.8 0 5-3 5-7.4 0-3.8-2.8-6.6-6.6-6.6-4.6 0-7.2 3.4-7.2 7 0 1.4 0.6 2.8 1.2 3.6 0.2 0.2 0.2 0.2 0.2 0.4-0.2 0.6-0.4 1.6-0.4 1.8s-0.2 0.4-0.6 0.2c-2-1-3.2-3.8-3.2-6.2 0-5 3.6-9.6 10.6-9.6 5.6 0 9.8 4 9.8 9.2 0 5.6-3.4 10-8.4 10-1.6 0-3.2-0.8-3.6-1.8l-1 3.8c-0.4 1.4-1.4 3.2-2 4.2 1.6 0.4 3 0.8 4.8 0.8 8.8 0 16-7.2 16-16s-7.2-16-16-16v0z"></path>
</svg>
