<?xml version="1.0" encoding="utf-8"?>
<!-- Generated by IcoMoon.io -->
<!DOCTYPE svg PUBLIC "-//W3C//DTD SVG 1.1//EN" "http://www.w3.org/Graphics/SVG/1.1/DTD/svg11.dtd">
<svg version="1.1" xmlns="http://www.w3.org/2000/svg" xmlns:xlink="http://www.w3.org/1999/xlink" width="32" height="32" viewBox="0 0 32 32">
<path fill="#fff" d="M28.2 24.4c-0.2 1.2-2.8 4.6-4 5.2-0.4 0.2-0.8 0.2-1.2-0.2-0.2-0.2-0.4-0.4-3.2-5.2l-0.8-1.4c-0.4-0.4-0.2-1.2 0.2-1.6s1-0.6 1.4-0.4c0 0 2.2 0.8 2.2 0.8 4.8 1.6 5 1.6 5.2 1.8 0 0 0.2 0.4 0.2 1v0zM18.6 17.2c-0.4-0.6-0.4-1.2 0-1.6l1.4-1.8c3-4 3-4.2 3.2-4.4 0.4-0.2 0.8-0.2 1.2 0 1.2 0.6 3.4 4 3.6 5.4v0c0 0.4-0.2 0.8-0.4 1s-0.4 0.2-5.8 1.6c-0.8 0.2-1.4 0.4-1.6 0.4v0c-0.6 0.2-1.2 0-1.6-0.6v0zM15.2 15.2c-0.2 0-1 0.4-2-1.2 0 0-6.6-10.4-6.8-10.6 0-0.4 0-0.8 0.4-1 1-1 6.2-2.4 7.6-2.2 0.4 0.2 0.8 0.4 0.8 0.8s0.8 10 0.8 12.2c0.2 1.6-0.6 2-0.8 2zM16 25.8c0 5 0 5.2-0.2 5.4-0.2 0.4-0.4 0.6-1 0.8-1.2 0.2-5.2-1.2-6.2-2.2-0.2-0.2-0.2-0.4-0.2-0.6s0-0.4 0-0.4 0.2-0.4 3.8-4.6l1-1.2c0.4-0.4 1-0.6 1.6-0.4s1 0.8 0.8 1.2l0.4 2zM5.2 22.6c-0.4 0-0.8-0.2-1-0.6-0.2-0.2-0.2-0.8-0.4-1.4-0.2-1.8 0-4.4 0.6-5.2 0.2-0.4 0.6-0.6 1-0.6 0.2 0 0.4 0 5.6 2.2l1.6 0.6c0.6 0.2 0.8 0.8 0.8 1.4s-0.4 1.2-1 1.2c0 0-2.2 0.6-2.2 0.6-4.6 1.6-4.8 1.8-5 1.8v0zM25.2 32v0 0 0z"></path>
</svg>
