<?xml version="1.0" encoding="utf-8"?>
<!-- Generator: Adobe Illustrator 19.1.0, SVG Export Plug-In . SVG Version: 6.00 Build 0)  -->
<svg version="1.1" id="Layer_1" xmlns="http://www.w3.org/2000/svg" xmlns:xlink="http://www.w3.org/1999/xlink" x="0px" y="0px"
	 width="16px" height="16px" viewBox="-391 293 16 16" enable-background="new -391 293 16 16" xml:space="preserve">
<path fill="#FFFFFF" d="M-375.9,293h-14.2c-0.5,0-0.9,0.4-0.9,0.9v14.2c0,0.5,0.4,0.9,0.9,0.9h7.7v-6.2h-2.1v-2.4h2.1v-1.8
	c0-2.1,1.3-3.2,3.1-3.2c0.9,0,1.6,0.1,1.9,0.1v2.2h-1.3c-1,0-1.2,0.5-1.2,1.2v1.5h2.4l-0.3,2.4h-2.1v6.2h4.1c0.5,0,0.9-0.4,0.9-0.9
	v-14.2C-375,293.4-375.4,293-375.9,293"/>
</svg>
