<?xml version="1.0" encoding="utf-8"?>
<!-- Generator: Adobe Illustrator 19.1.0, SVG Export Plug-In . SVG Version: 6.00 Build 0)  -->
<svg version="1.1" id="Layer_1" xmlns="http://www.w3.org/2000/svg" xmlns:xlink="http://www.w3.org/1999/xlink" x="0px" y="0px"
	 width="16px" height="16px" viewBox="-391 293 16 16" enable-background="new -391 293 16 16" xml:space="preserve">
<g>
	<path fill="#FFFFFF" d="M-385.9,300.3v1.7h2.9c-0.1,0.8-0.9,2.2-2.9,2.2c-1.7,0-3.2-1.4-3.2-3.2s1.4-3.2,3.2-3.2c1,0,1.7,0.4,2,0.8
		l1.4-1.3c-0.9-0.8-2-1.3-3.4-1.3c-2.8,0-5.1,2.3-5.1,5.1s2.3,5.1,5.1,5.1c2.9,0,4.9-2.1,4.9-5c0-0.3,0-0.6-0.1-0.8
		C-381.1,300.3-385.9,300.3-385.9,300.3z M-375,300.3h-1.5v-1.5h-1.5v1.5h-1.5v1.5h1.5v1.5h1.5v-1.5h1.5"/>
</g>
</svg>
