<?xml version="1.0" encoding="utf-8"?>
<!-- Generator: Adobe Illustrator 19.1.0, SVG Export Plug-In . SVG Version: 6.00 Build 0)  -->
<svg version="1.1" id="Layer_1" xmlns="http://www.w3.org/2000/svg" xmlns:xlink="http://www.w3.org/1999/xlink" x="0px" y="0px"
	 width="16px" height="16px" viewBox="-391 293 16 16" enable-background="new -391 293 16 16" xml:space="preserve">
<path fill="#FFFFFF" d="M-376.8,309h-12.3c-1,0-1.8-0.8-1.8-1.8v-12.3c0-1,0.8-1.8,1.8-1.8h12.3c1,0,1.8,0.8,1.8,1.8v12.3
	C-375,308.2-375.8,309-376.8,309 M-383,297.9c-1.7,0-3.1,1.4-3.1,3.1s1.4,3.1,3.1,3.1s3.1-1.4,3.1-3.1S-381.3,297.9-383,297.9
	 M-376.8,295.5c0-0.3-0.3-0.6-0.6-0.6h-1.8c-0.3,0-0.6,0.3-0.6,0.6v1.8c0,0.3,0.3,0.6,0.6,0.6h1.8c0.3,0,0.6-0.3,0.6-0.6V295.5
	L-376.8,295.5z M-376.8,299.8h-1.4c0.1,0.4,0.2,0.8,0.2,1.2c0,2.7-2.2,4.9-4.9,4.9c-2.7,0-4.9-2.2-4.9-4.9c0-0.4,0.1-0.8,0.2-1.2
	h-1.4v6.8c0,0.3,0.3,0.6,0.6,0.6h11.1c0.3,0,0.6-0.3,0.6-0.6L-376.8,299.8L-376.8,299.8z"/>
</svg>
