<?xml version="1.0" encoding="utf-8"?>
<!-- Generator: Adobe Illustrator 19.1.0, SVG Export Plug-In . SVG Version: 6.00 Build 0)  -->
<svg version="1.1" id="Layer_1" xmlns="http://www.w3.org/2000/svg" xmlns:xlink="http://www.w3.org/1999/xlink" x="0px" y="0px"
	 width="16px" height="16px" viewBox="-391 293 16 16" enable-background="new -391 293 16 16" xml:space="preserve">
<path fill="#FFFFFF" d="M-377.4,306.6h-2.4v-3.7c0-0.9,0-2-1.2-2c-1.2,0-1.4,1-1.4,2v3.8h-2.4V299h2.3v1h0c0.3-0.6,1.1-1.2,2.2-1.2
	c2.4,0,2.8,1.6,2.8,3.6V306.6L-377.4,306.6z M-387.4,298c-0.8,0-1.4-0.6-1.4-1.4c0-0.8,0.6-1.4,1.4-1.4c0.8,0,1.4,0.6,1.4,1.4
	C-386.1,297.3-386.7,298-387.4,298z M-386.3,306.6h-2.4V299h2.4C-386.3,299-386.3,306.6-386.3,306.6z M-376.2,293h-13.6
	c-0.7,0-1.2,0.5-1.2,1.2v13.7c0,0.6,0.5,1.2,1.2,1.2h13.6c0.7,0,1.2-0.5,1.2-1.2v-13.7C-375,293.5-375.5,293-376.2,293L-376.2,293z"
	/>
</svg>
