<?xml version="1.0" encoding="utf-8"?>
<!-- Generator: Adobe Illustrator 19.1.0, SVG Export Plug-In . SVG Version: 6.00 Build 0)  -->
<svg version="1.1" id="Layer_1" xmlns="http://www.w3.org/2000/svg" xmlns:xlink="http://www.w3.org/1999/xlink" x="0px" y="0px"
	 width="16px" height="16px" viewBox="-391 293 16 16" enable-background="new -391 293 16 16" xml:space="preserve">
<g>
	<path fill="#FFFFFF" d="M-376.9,305.2c-0.1,0.6-1.4,2.3-2,2.6c-0.2,0.1-0.4,0.1-0.6-0.1c-0.1-0.1-0.2-0.2-1.6-2.6l-0.4-0.7
		c-0.2-0.2-0.1-0.6,0.1-0.8c0.2-0.2,0.5-0.3,0.7-0.2c0,0,1.1,0.4,1.1,0.4c2.4,0.8,2.5,0.8,2.6,0.9
		C-377,304.7-376.9,304.9-376.9,305.2L-376.9,305.2z M-381.7,301.6c-0.2-0.3-0.2-0.6,0-0.8l0.7-0.9c1.5-2,1.5-2.1,1.6-2.2
		c0.2-0.1,0.4-0.1,0.6,0c0.6,0.3,1.7,2,1.8,2.7v0c0,0.2-0.1,0.4-0.2,0.5c-0.1,0.1-0.2,0.1-2.9,0.8c-0.4,0.1-0.7,0.2-0.8,0.2l0,0
		C-381.2,302-381.5,301.9-381.7,301.6L-381.7,301.6z M-383.4,300.6c-0.1,0-0.5,0.2-1-0.6c0,0-3.3-5.2-3.4-5.3c0-0.2,0-0.4,0.2-0.5
		c0.5-0.5,3.1-1.2,3.8-1.1c0.2,0.1,0.4,0.2,0.4,0.4c0,0.2,0.4,5,0.4,6.1C-382.9,300.4-383.3,300.6-383.4,300.6z M-383,305.9
		c0,2.5,0,2.6-0.1,2.7c-0.1,0.2-0.2,0.3-0.5,0.4c-0.6,0.1-2.6-0.6-3.1-1.1c-0.1-0.1-0.1-0.2-0.1-0.3c0-0.1,0-0.2,0-0.2
		c0-0.1,0.1-0.2,1.9-2.3l0.5-0.6c0.2-0.2,0.5-0.3,0.8-0.2c0.3,0.1,0.5,0.4,0.4,0.6L-383,305.9L-383,305.9z M-388.4,304.3
		c-0.2,0-0.4-0.1-0.5-0.3c-0.1-0.1-0.1-0.4-0.2-0.7c-0.1-0.9,0-2.2,0.3-2.6c0.1-0.2,0.3-0.3,0.5-0.3c0.1,0,0.2,0,2.8,1.1l0.8,0.3
		c0.3,0.1,0.4,0.4,0.4,0.7c0,0.3-0.2,0.6-0.5,0.6c0,0-1.1,0.3-1.1,0.3C-388.2,304.2-388.3,304.3-388.4,304.3L-388.4,304.3z
		 M-378.4,309L-378.4,309L-378.4,309L-378.4,309z"/>
</g>
</svg>
